<svg version="1.1" xmlns="http://www.w3.org/2000/svg" xmlns:xlink="http://www.w3.org/1999/xlink" width="70" height="70" viewBox="0,0,70,70"><!-- Generated with https://ivantodorovich.github.io/odoo-icon --><defs><linearGradient x1="70" y1="0" x2="0" y2="70" gradientUnits="userSpaceOnUse" id="color-1"><stop offset="0" stop-color="#526fa8"/><stop offset="1" stop-color="#1f3c75"/></linearGradient></defs><g fill="none" fill-rule="nonzero" stroke="none" stroke-width="1" stroke-linecap="butt" stroke-linejoin="miter" stroke-miterlimit="10" stroke-dasharray="" stroke-dashoffset="0" font-family="none" font-weight="none" font-size="none" text-anchor="none" style="mix-blend-mode: normal"><path d="M3.5,70c-1.933,0 -3.5,-1.567 -3.5,-3.5v-63c0,-1.933 1.567,-3.5 3.5,-3.5h63c1.933,0 3.5,1.567 3.5,3.5v63c0,1.933 -1.567,3.5 -3.5,3.5z" id="box" fill="url(#color-1)"/><path d="M65,1h-61c-1.95033,0 -3.2667,0.63396 -3.9491,1.90189c0.28378,-1.64806 1.72001,-2.90189 3.4491,-2.90189h63c1.72965,0 3.16627,1.25466 3.44938,2.90352c-0.69803,-1.26902 -2.34782,-1.90352 -4.94938,-1.90352z" id="topBoxShadow" fill="#ffffff" opacity="0.383"/><path d="M4,69h61c2.66667,0 4.33333,-1 5,-3v0.5c0,1.933 -1.567,3.5 -3.5,3.5h-63c-1.933,0 -3.5,-1.567 -3.5,-3.5c0,-0.1611 0,-0.32777 0,-0.5c0.66667,2 2,3 4,3z" id="bottomBoxShadow" fill="#000000" opacity="0.383"/><path d="M35.49655,10c-5.3993,0 -10.51913,2.25496 -15.24511,6.69827l-0.02233,0.02233c-4.60529,4.74186 -4.00532,9.11839 -3.24306,14.66697c0.04658,0.3409 0.0946,0.68694 0.14329,1.03842c0.12704,0.95282 -0.69903,2.39793 -1.49622,3.81128c-1.20055,2.11208 -2.43927,4.29761 -0.92429,5.32983c2.58849,1.76271 3.03677,5.23371 3.47506,8.59398c0.10481,0.79719 0.20965,1.62324 0.34304,2.42361c0.23185,1.38476 1.39693,2.05514 3.56935,2.05514c1.00213,-0.02222 2.00222,-0.10071 2.99555,-0.2351c0.76573,-0.10402 1.53642,-0.16759 2.30885,-0.19044c0.29045,-0.00771 0.58068,0.0221 0.86349,0.0887c2.60755,0.70826 4.88796,5.98039 5.71692,9.13739c0.0663,0.25651 0.26361,0.45864 0.51844,0.53112c0.25483,0.07248 0.52898,0.00444 0.72035,-0.17878l13.36801,-12.75823c0.20709,-0.19753 0.28363,-0.49574 0.19726,-0.76858c-1.18149,-3.69376 1.27053,-7.30495 3.4366,-10.48101c0.91402,-1.26633 1.73143,-2.59966 2.44532,-3.98869c2.80447,-5.96464 0.77796,-13.61627 -2.56008,-17.79278c-2.37569,-2.97279 -8.53372,-8.00344 -16.61045,-8.00344zM32.19952,17.54936l1.90564,0.43237c0.15712,0.03563 0.29362,0.1323 0.37939,0.26868c0.08577,0.13639 0.11375,0.30129 0.07779,0.45834l-0.19975,0.91126c0.33097,0.18662 0.64175,0.40698 0.92739,0.65754l0.79091,-0.49874c0.13638,-0.08611 0.30145,-0.11437 0.45871,-0.07851c0.15726,0.03585 0.29377,0.13286 0.37935,0.26957l1.04215,1.65441c0.08637,0.13636 0.11483,0.30152 0.07909,0.45892c-0.03574,0.1574 -0.13274,0.29407 -0.26953,0.37976l-0.79091,0.49874c0.10185,0.3661 0.16567,0.74173 0.19044,1.12093l0.91126,0.20657c0.15724,0.03549 0.29389,0.1321 0.37978,0.2685c0.08589,0.1364 0.11396,0.30138 0.07802,0.45852l-0.43237,1.90564c-0.03549,0.15724 -0.1321,0.29389 -0.2685,0.37978c-0.1364,0.08589 -0.30138,0.11396 -0.45852,0.07802l-0.91188,-0.20657c-0.18617,0.33207 -0.40632,0.64391 -0.65692,0.93049l0.49812,0.79091c0.08637,0.13636 0.11483,0.30152 0.07909,0.45892c-0.03574,0.1574 -0.13274,0.29407 -0.26953,0.37976l-1.65441,1.03842c-0.13598,0.08665 -0.30087,0.11559 -0.45823,0.08044c-0.15736,-0.03515 -0.29426,-0.1315 -0.38045,-0.26778l-0.49874,-0.79091c-0.36608,0.10196 -0.74172,0.16578 -1.12093,0.19044l-0.20657,0.91126c-0.03549,0.15724 -0.1321,0.29389 -0.2685,0.37978c-0.1364,0.08589 -0.30138,0.11396 -0.45852,0.07802l-1.90564,-0.43237c-0.15724,-0.03549 -0.29389,-0.1321 -0.37978,-0.2685c-0.08589,-0.1364 -0.11396,-0.30138 -0.07802,-0.45852l0.20657,-0.91126c-0.33097,-0.18662 -0.64175,-0.40698 -0.92739,-0.65754l-0.79091,0.49874c-0.13643,0.08631 -0.30165,0.11467 -0.45906,0.07882c-0.15741,-0.03586 -0.29403,-0.13299 -0.37962,-0.26988l-1.04463,-1.65441c-0.08637,-0.13636 -0.11483,-0.30152 -0.07909,-0.45892c0.03574,-0.1574 0.13274,-0.29407 0.26953,-0.37976l0.79091,-0.49874c-0.10203,-0.36606 -0.16585,-0.74171 -0.19044,-1.12093l-0.91498,-0.20967c-0.15712,-0.03563 -0.29362,-0.1323 -0.37939,-0.26868c-0.08577,-0.13639 -0.11375,-0.30129 -0.07779,-0.45834l0.43175,-1.90564c0.03548,-0.15737 0.13218,-0.29413 0.26873,-0.38004c0.13655,-0.08591 0.30169,-0.11389 0.45891,-0.07776l0.91126,0.20657c0.18655,-0.33102 0.4069,-0.64181 0.65754,-0.92739l-0.49874,-0.79091c-0.08637,-0.13636 -0.11483,-0.30152 -0.07909,-0.45892c0.03574,-0.1574 0.13274,-0.29407 0.26953,-0.37976l1.65503,-1.04153c0.13636,-0.08637 0.30152,-0.11483 0.45892,-0.07909c0.1574,0.03574 0.29407,0.13274 0.37976,0.26953l0.49874,0.79091c0.36608,-0.10196 0.74172,-0.16578 1.12093,-0.19044l0.20657,-0.91126c0.03549,-0.15724 0.1321,-0.29389 0.2685,-0.37978c0.1364,-0.08589 0.30138,-0.11396 0.45852,-0.07802zM43.66189,21.21486c0.24107,-0.06488 0.48932,0.07697 0.55581,0.31761l0.18113,0.67305c0.28368,0.00778 0.56579,0.045 0.84178,0.11104l0.34924,-0.60296c0.12559,-0.21621 0.40232,-0.29024 0.61908,-0.16563l1.27043,0.73074c0.21621,0.12559 0.29024,0.40231 0.16563,0.61908l-0.34924,0.60358c0.19515,0.20617 0.36852,0.43193 0.51735,0.67367l0.67367,-0.18113c0.24107,-0.06488 0.48932,0.07697 0.55581,0.31761l0.37778,1.41c0.06488,0.24107 -0.07697,0.48932 -0.31761,0.55581l-0.67367,0.18113c-0.00799,0.28366 -0.0452,0.56575 -0.11104,0.84178l0.60358,0.34924c0.21599,0.1258 0.28973,0.40247 0.16501,0.61908l-0.73012,1.27043c-0.12582,0.21635 -0.40296,0.29015 -0.6197,0.16501l-0.60358,-0.34924c-0.20595,0.19533 -0.43149,0.36891 -0.67305,0.51797l0.18113,0.67305c0.06488,0.24107 -0.07697,0.48932 -0.31761,0.55581l-1.41,0.3784c-0.24107,0.06488 -0.48932,-0.07697 -0.55581,-0.31761l-0.18113,-0.67367c-0.28367,-0.00785 -0.56577,-0.04506 -0.84178,-0.11104l-0.34924,0.60358c-0.12582,0.21635 -0.40296,0.29015 -0.6197,0.16501l-1.27043,-0.73074c-0.21599,-0.1258 -0.28973,-0.40247 -0.16501,-0.61908l0.34924,-0.60358c-0.19512,-0.20598 -0.36848,-0.43152 -0.51735,-0.67305l-0.67367,0.18113c-0.24107,0.06488 -0.48932,-0.07697 -0.55581,-0.31761l-0.37778,-1.41062c-0.06488,-0.24107 0.07697,-0.48932 0.31761,-0.55581l0.67305,-0.18113c0.00805,-0.28349 0.04547,-0.56539 0.11166,-0.84116l-0.60358,-0.34986c-0.21599,-0.1258 -0.28973,-0.40247 -0.16501,-0.61908l0.73012,-1.27043c0.12582,-0.21635 0.40296,-0.29015 0.6197,-0.16501l0.60296,0.34924c0.20615,-0.19537 0.4319,-0.36894 0.67367,-0.51797l-0.18113,-0.67305c-0.06488,-0.24107 0.07697,-0.48932 0.31761,-0.55581zM31.63751,22.49149c-1.08226,0.00001 -1.95959,0.87735 -1.95961,1.95961c0.00001,1.08226 0.87735,1.95959 1.95961,1.95961c1.08226,-0.00001 1.95959,-0.87735 1.95961,-1.95961c-0.00001,-1.08226 -0.87735,-1.95959 -1.95961,-1.95961zM44.2971,24.87974c-0.80678,0.00007 -1.4608,0.65408 -1.46087,1.46087c-0.00013,0.38754 0.15372,0.75926 0.4277,1.03335c0.27398,0.27409 0.64563,0.4281 1.03317,0.42813c0.38754,-0.00003 0.75919,-0.15404 1.03317,-0.42813c0.27398,-0.27409 0.42783,-0.64581 0.4277,-1.03335c-0.00007,-0.80679 -0.65408,-1.4608 -1.46087,-1.46087zM37.51013,30.21268c0.18236,-0.04863 0.36975,0.05921 0.41934,0.24131l0.13647,0.50805c0.21402,0.00554 0.42689,0.03319 0.63521,0.0825l0.26364,-0.45408c0.09516,-0.16228 0.30328,-0.21763 0.46648,-0.12406l0.95282,0.54961c0.16265,0.09519 0.21805,0.30376 0.12407,0.4671l-0.26364,0.45408c0.14739,0.15546 0.27835,0.32571 0.39081,0.50805l0.50805,-0.13647c0.18236,-0.04863 0.36975,0.05921 0.41934,0.24131l0.28597,1.06386c0.04958,0.17867 -0.0518,0.36441 -0.2289,0.41934l-0.50805,0.13647c-0.00561,0.21401 -0.03325,0.42687 -0.0825,0.63521l0.45408,0.26364c0.16265,0.09519 0.21805,0.30376 0.12407,0.4671l-0.54961,0.95282c-0.0954,0.16242 -0.30392,0.21753 -0.4671,0.12344l-0.45408,-0.25061c-0.15545,0.1474 -0.3257,0.27837 -0.50805,0.39081l0.13647,0.50805c0.04863,0.18236 -0.05921,0.36975 -0.24131,0.41934l-1.06386,0.28597c-0.18255,0.04858 -0.37002,-0.05957 -0.41934,-0.24193l-0.13647,-0.50805c-0.21402,-0.00545 -0.4269,-0.03309 -0.63521,-0.0825l-0.26364,0.45408c-0.09519,0.16265 -0.30376,0.21805 -0.4671,0.12407l-0.95282,-0.54961c-0.16341,-0.09411 -0.2202,-0.30247 -0.12717,-0.46648l0.26364,-0.4547c-0.14737,-0.15548 -0.27833,-0.32572 -0.39081,-0.50805l-0.50805,0.13647c-0.18236,0.04863 -0.36975,-0.05921 -0.41934,-0.24131l-0.28535,-1.06386c-0.02515,-0.08888 -0.01339,-0.18414 0.03261,-0.26423c0.046,-0.08009 0.12236,-0.13825 0.2118,-0.16131l0.50805,-0.13647c0.00563,-0.21401 0.03328,-0.42687 0.0825,-0.63521l-0.45408,-0.26364c-0.08194,-0.04361 -0.14271,-0.11858 -0.16843,-0.20777c-0.02572,-0.08919 -0.01419,-0.185 0.03195,-0.26554l0.54961,-0.95282c0.09516,-0.16228 0.30328,-0.21763 0.46648,-0.12406l0.45408,0.26364c0.15569,-0.1472 0.32615,-0.27796 0.50867,-0.39019l-0.13709,-0.50867c-0.04858,-0.18255 0.05957,-0.37002 0.24193,-0.41934zM37.99274,32.9787c-0.29237,-0.00006 -0.57278,0.11606 -0.77952,0.3228c-0.20674,0.20674 -0.32286,0.48715 -0.3228,0.77952c0.00022,0.6086 0.49372,1.10182 1.10232,1.1017c0.6086,0.00012 1.1021,-0.4931 1.10232,-1.1017c0.00006,-0.29237 -0.11606,-0.57278 -0.3228,-0.77952c-0.20674,-0.20674 -0.48715,-0.32286 -0.77952,-0.3228z" id="shadow" fill="#000000" opacity="0.3"/><path d="M20.25144,14.69827c4.72598,-4.44331 9.8458,-6.69827 15.24511,-6.69827l0,0c8.07672,0 14.23475,5.03064 16.61044,8.00344c3.33804,4.17652 5.36454,11.82814 2.56008,17.79278c-0.71388,1.38903 -1.5313,2.72236 -2.44532,3.98869c-2.16608,3.17606 -4.6181,6.78725 -3.4366,10.48101c0.08457,0.26718 0.01293,0.55868 -0.18453,0.75615l-20.97793,20.97793h-24.12269c-1.933,0 -3.5,-1.567 -3.5,-3.5l0,-31.55029z" id="flatShadow" fill="#000000" opacity="0.324"/><path d="M35.49655,8c-5.3993,0 -10.51913,2.25496 -15.24511,6.69827l-0.02233,0.02233c-4.60529,4.74186 -4.00532,9.11839 -3.24306,14.66697c0.04658,0.3409 0.0946,0.68694 0.14329,1.03842c0.12704,0.95282 -0.69903,2.39793 -1.49622,3.81128c-1.20055,2.11208 -2.43927,4.29761 -0.92429,5.32983c2.58849,1.76271 3.03677,5.23371 3.47506,8.59398c0.10481,0.79719 0.20965,1.62324 0.34304,2.42361c0.23185,1.38476 1.39693,2.05514 3.56935,2.05514c1.00213,-0.02222 2.00222,-0.10071 2.99555,-0.2351c0.76573,-0.10402 1.53642,-0.16759 2.30885,-0.19044c0.29045,-0.00771 0.58068,0.0221 0.86349,0.0887c2.60755,0.70826 4.88796,5.98039 5.71692,9.13739c0.0663,0.25651 0.26361,0.45864 0.51844,0.53112c0.25483,0.07248 0.52898,0.00444 0.72035,-0.17878l13.36801,-12.75823c0.20709,-0.19753 0.28363,-0.49574 0.19726,-0.76858c-1.18149,-3.69376 1.27053,-7.30495 3.4366,-10.48101c0.91402,-1.26633 1.73143,-2.59966 2.44532,-3.98869c2.80447,-5.96464 0.77796,-13.61627 -2.56008,-17.79278c-2.37569,-2.97279 -8.53372,-8.00344 -16.61045,-8.00344zM32.19952,15.54936l1.90564,0.43237c0.15712,0.03563 0.29362,0.1323 0.37939,0.26868c0.08577,0.13639 0.11375,0.30129 0.07779,0.45834l-0.19975,0.91126c0.33097,0.18662 0.64175,0.40698 0.92739,0.65754l0.79091,-0.49874c0.13638,-0.08611 0.30145,-0.11437 0.45871,-0.07851c0.15726,0.03585 0.29377,0.13286 0.37935,0.26957l1.04215,1.65441c0.08637,0.13636 0.11483,0.30152 0.07909,0.45892c-0.03574,0.1574 -0.13274,0.29407 -0.26953,0.37976l-0.79091,0.49874c0.10185,0.3661 0.16567,0.74173 0.19044,1.12093l0.91126,0.20657c0.15724,0.03549 0.29389,0.1321 0.37978,0.2685c0.08589,0.1364 0.11396,0.30138 0.07802,0.45852l-0.43237,1.90564c-0.03549,0.15724 -0.1321,0.29389 -0.2685,0.37978c-0.1364,0.08589 -0.30138,0.11396 -0.45852,0.07802l-0.91188,-0.20657c-0.18617,0.33207 -0.40632,0.64391 -0.65692,0.93049l0.49812,0.79091c0.08637,0.13636 0.11483,0.30152 0.07909,0.45892c-0.03574,0.1574 -0.13274,0.29407 -0.26953,0.37976l-1.65441,1.03842c-0.13598,0.08665 -0.30087,0.11559 -0.45823,0.08044c-0.15736,-0.03515 -0.29426,-0.1315 -0.38045,-0.26778l-0.49874,-0.79091c-0.36608,0.10196 -0.74172,0.16578 -1.12093,0.19044l-0.20657,0.91126c-0.03549,0.15724 -0.1321,0.29389 -0.2685,0.37978c-0.1364,0.08589 -0.30138,0.11396 -0.45852,0.07802l-1.90564,-0.43237c-0.15724,-0.03549 -0.29389,-0.1321 -0.37978,-0.2685c-0.08589,-0.1364 -0.11396,-0.30138 -0.07802,-0.45852l0.20657,-0.91126c-0.33097,-0.18662 -0.64175,-0.40698 -0.92739,-0.65754l-0.79091,0.49874c-0.13643,0.08631 -0.30165,0.11467 -0.45906,0.07882c-0.15741,-0.03586 -0.29403,-0.13299 -0.37962,-0.26988l-1.04463,-1.65441c-0.08637,-0.13636 -0.11483,-0.30152 -0.07909,-0.45892c0.03574,-0.1574 0.13274,-0.29407 0.26953,-0.37976l0.79091,-0.49874c-0.10203,-0.36606 -0.16585,-0.74171 -0.19044,-1.12093l-0.91498,-0.20967c-0.15712,-0.03563 -0.29362,-0.1323 -0.37939,-0.26868c-0.08577,-0.13639 -0.11375,-0.30129 -0.07779,-0.45834l0.43175,-1.90564c0.03548,-0.15737 0.13218,-0.29413 0.26873,-0.38004c0.13655,-0.08591 0.30169,-0.11389 0.45891,-0.07776l0.91126,0.20657c0.18655,-0.33102 0.4069,-0.64181 0.65754,-0.92739l-0.49874,-0.79091c-0.08637,-0.13636 -0.11483,-0.30152 -0.07909,-0.45892c0.03574,-0.1574 0.13274,-0.29407 0.26953,-0.37976l1.65503,-1.04153c0.13636,-0.08637 0.30152,-0.11483 0.45892,-0.07909c0.1574,0.03574 0.29407,0.13274 0.37976,0.26953l0.49874,0.79091c0.36608,-0.10196 0.74172,-0.16578 1.12093,-0.19044l0.20657,-0.91126c0.03549,-0.15724 0.1321,-0.29389 0.2685,-0.37978c0.1364,-0.08589 0.30138,-0.11396 0.45852,-0.07802zM43.66189,19.21486c0.24107,-0.06488 0.48932,0.07697 0.55581,0.31761l0.18113,0.67305c0.28368,0.00778 0.56579,0.045 0.84178,0.11104l0.34924,-0.60296c0.12559,-0.21621 0.40232,-0.29024 0.61908,-0.16563l1.27043,0.73074c0.21621,0.12559 0.29024,0.40231 0.16563,0.61908l-0.34924,0.60358c0.19515,0.20617 0.36852,0.43193 0.51735,0.67367l0.67367,-0.18113c0.24107,-0.06488 0.48932,0.07697 0.55581,0.31761l0.37778,1.41c0.06488,0.24107 -0.07697,0.48932 -0.31761,0.55581l-0.67367,0.18113c-0.00799,0.28366 -0.0452,0.56575 -0.11104,0.84178l0.60358,0.34924c0.21599,0.1258 0.28973,0.40247 0.16501,0.61908l-0.73012,1.27043c-0.12582,0.21635 -0.40296,0.29015 -0.6197,0.16501l-0.60358,-0.34924c-0.20595,0.19533 -0.43149,0.36891 -0.67305,0.51797l0.18113,0.67305c0.06488,0.24107 -0.07697,0.48932 -0.31761,0.55581l-1.41,0.3784c-0.24107,0.06488 -0.48932,-0.07697 -0.55581,-0.31761l-0.18113,-0.67367c-0.28367,-0.00785 -0.56577,-0.04506 -0.84178,-0.11104l-0.34924,0.60358c-0.12582,0.21635 -0.40296,0.29015 -0.6197,0.16501l-1.27043,-0.73074c-0.21599,-0.1258 -0.28973,-0.40247 -0.16501,-0.61908l0.34924,-0.60358c-0.19512,-0.20598 -0.36848,-0.43152 -0.51735,-0.67305l-0.67367,0.18113c-0.24107,0.06488 -0.48932,-0.07697 -0.55581,-0.31761l-0.37778,-1.41062c-0.06488,-0.24107 0.07697,-0.48932 0.31761,-0.55581l0.67305,-0.18113c0.00805,-0.28349 0.04547,-0.56539 0.11166,-0.84116l-0.60358,-0.34986c-0.21599,-0.1258 -0.28973,-0.40247 -0.16501,-0.61908l0.73012,-1.27043c0.12582,-0.21635 0.40296,-0.29015 0.6197,-0.16501l0.60296,0.34924c0.20615,-0.19537 0.4319,-0.36894 0.67367,-0.51797l-0.18113,-0.67305c-0.06488,-0.24107 0.07697,-0.48932 0.31761,-0.55581zM31.63751,20.49149c-1.08226,0.00001 -1.95959,0.87735 -1.95961,1.95961c0.00001,1.08226 0.87735,1.95959 1.95961,1.95961c1.08226,-0.00001 1.95959,-0.87735 1.95961,-1.95961c-0.00001,-1.08226 -0.87735,-1.95959 -1.95961,-1.95961zM44.2971,22.87974c-0.80678,0.00007 -1.4608,0.65408 -1.46087,1.46087c-0.00013,0.38754 0.15372,0.75926 0.4277,1.03335c0.27398,0.27409 0.64563,0.4281 1.03317,0.42813c0.38754,-0.00003 0.75919,-0.15404 1.03317,-0.42813c0.27398,-0.27409 0.42783,-0.64581 0.4277,-1.03335c-0.00007,-0.80679 -0.65408,-1.4608 -1.46087,-1.46087zM37.51013,28.21268c0.18236,-0.04863 0.36975,0.05921 0.41934,0.24131l0.13647,0.50805c0.21402,0.00554 0.42689,0.03319 0.63521,0.0825l0.26364,-0.45408c0.09516,-0.16228 0.30328,-0.21763 0.46648,-0.12406l0.95282,0.54961c0.16265,0.09519 0.21805,0.30376 0.12407,0.4671l-0.26364,0.45408c0.14739,0.15546 0.27835,0.32571 0.39081,0.50805l0.50805,-0.13647c0.18236,-0.04863 0.36975,0.05921 0.41934,0.24131l0.28597,1.06386c0.04958,0.17867 -0.0518,0.36441 -0.2289,0.41934l-0.50805,0.13647c-0.00561,0.21401 -0.03325,0.42687 -0.0825,0.63521l0.45408,0.26364c0.16265,0.09519 0.21805,0.30376 0.12407,0.4671l-0.54961,0.95282c-0.0954,0.16242 -0.30392,0.21753 -0.4671,0.12344l-0.45408,-0.25061c-0.15545,0.1474 -0.3257,0.27837 -0.50805,0.39081l0.13647,0.50805c0.04863,0.18236 -0.05921,0.36975 -0.24131,0.41934l-1.06386,0.28597c-0.18255,0.04858 -0.37002,-0.05957 -0.41934,-0.24193l-0.13647,-0.50805c-0.21402,-0.00545 -0.4269,-0.03309 -0.63521,-0.0825l-0.26364,0.45408c-0.09519,0.16265 -0.30376,0.21805 -0.4671,0.12407l-0.95282,-0.54961c-0.16341,-0.09411 -0.2202,-0.30247 -0.12717,-0.46648l0.26364,-0.4547c-0.14737,-0.15548 -0.27833,-0.32572 -0.39081,-0.50805l-0.50805,0.13647c-0.18236,0.04863 -0.36975,-0.05921 -0.41934,-0.24131l-0.28535,-1.06386c-0.02515,-0.08888 -0.01339,-0.18414 0.03261,-0.26423c0.046,-0.08009 0.12236,-0.13825 0.2118,-0.16131l0.50805,-0.13647c0.00563,-0.21401 0.03328,-0.42687 0.0825,-0.63521l-0.45408,-0.26364c-0.08194,-0.04361 -0.14271,-0.11858 -0.16843,-0.20777c-0.02572,-0.08919 -0.01419,-0.185 0.03195,-0.26554l0.54961,-0.95282c0.09516,-0.16228 0.30328,-0.21763 0.46648,-0.12406l0.45408,0.26364c0.15569,-0.1472 0.32615,-0.27796 0.50867,-0.39019l-0.13709,-0.50867c-0.04858,-0.18255 0.05957,-0.37002 0.24193,-0.41934zM37.99274,30.9787c-0.29237,-0.00006 -0.57278,0.11606 -0.77952,0.3228c-0.20674,0.20674 -0.32286,0.48715 -0.3228,0.77952c0.00022,0.6086 0.49372,1.10182 1.10232,1.1017c0.6086,0.00012 1.1021,-0.4931 1.10232,-1.1017c0.00006,-0.29237 -0.11606,-0.57278 -0.3228,-0.77952c-0.20674,-0.20674 -0.48715,-0.32286 -0.77952,-0.3228z" id="icon" fill="#ffffff"/></g></svg>